<svg width="16" height="15" viewBox="0 0 16 15" fill="none" xmlns="http://www.w3.org/2000/svg">
<path d="M15.4762 3.91432L15.4759 3.91391L13.4761 0.580834C13.4761 0.580822 13.4761 0.58081 13.476 0.580797C13.4459 0.530702 13.3918 0.500044 13.3333 0.5L15.4762 3.91432ZM15.4762 3.91432C15.4917 3.94024 15.5 3.96992 15.5 4.00016L15.5 4.00137C15.5023 4.85644 15.0004 5.6325 14.2195 5.98098C13.4387 6.32946 12.5258 6.18485 11.8909 5.61208L11.5554 5.3094L11.2204 5.61267C10.4011 6.35445 9.1529 6.35445 8.33357 5.61267L7.99828 5.30912L7.66273 5.61239C6.84381 6.35254 5.59752 6.35254 4.77859 5.61239L4.44342 5.30946L4.10817 5.6123C3.71174 5.9704 3.19616 6.16803 2.66194 6.16667H2.66066H2.65604C1.46288 6.16339 0.4979 5.1941 0.499996 4.00088L0.499997 4.00016C0.500006 3.96991 0.508245 3.94024 0.52383 3.91432L0.524076 3.91391M15.4762 3.91432L0.524076 3.91391M0.524076 3.91391L2.52393 0.580833C2.52393 0.580829 2.52393 0.580824 2.52393 0.58082C2.55404 0.530711 2.60821 0.500044 2.66666 0.5C2.66669 0.5 2.66673 0.5 2.66676 0.5M0.524076 3.91391L2.66676 0.5M2.66676 0.5H13.3332H2.66676Z" stroke="white"/>
<path d="M13.3444 7.49997V7.5L13.3506 7.49992C13.4004 7.49926 13.4502 7.49778 13.5 7.49547V13.6666C13.5 13.7587 13.4254 13.8333 13.3333 13.8333H9.83333V10.3333V9.8333H9.33333H6.66667H6.16667V10.3333V13.8333H2.66667C2.57462 13.8333 2.5 13.7587 2.5 13.6666V7.49581C2.55192 7.49807 2.6039 7.49945 2.6559 7.49994L2.6559 7.49996L2.65983 7.49996C3.27399 7.50099 3.88096 7.3761 4.44352 7.13401C4.55684 7.18274 4.67212 7.22686 4.78908 7.26626C5.84108 7.6237 6.98574 7.57466 7.99967 7.13425C8.11285 7.18284 8.22798 7.22685 8.34478 7.26615C9.39805 7.62327 10.5438 7.57366 11.5587 7.13248C12.1218 7.37503 12.7295 7.50043 13.3444 7.49997Z" stroke="white"/>
</svg>
